<svg width="20" height="20" viewBox="0 0 20 20" fill="none" xmlns="http://www.w3.org/2000/svg">
<path d="M3.68332 17.1492C3.56771 17.149 3.4534 17.1247 3.34766 17.0779C3.24193 17.0312 3.14708 16.9629 3.06916 16.8775C2.98982 16.7928 2.92929 16.6923 2.89152 16.5826C2.85374 16.4729 2.83959 16.3564 2.84999 16.2408L3.05416 13.9958L12.4858 4.5675L15.4333 7.51417L6.00416 16.9417L3.75916 17.1458C3.73395 17.1482 3.70864 17.1493 3.68332 17.1492ZM16.0217 6.925L13.075 3.97834L14.8425 2.21084C14.9199 2.13336 15.0118 2.07189 15.113 2.02995C15.2141 1.98802 15.3226 1.96643 15.4321 1.96643C15.5416 1.96643 15.65 1.98802 15.7512 2.02995C15.8524 2.07189 15.9443 2.13336 16.0217 2.21084L17.7892 3.97834C17.8666 4.05573 17.9281 4.14764 17.97 4.2488C18.012 4.34997 18.0336 4.45841 18.0336 4.56792C18.0336 4.67743 18.012 4.78587 17.97 4.88704C17.9281 4.9882 17.8666 5.08011 17.7892 5.1575L16.0225 6.92417L16.0217 6.925Z" fill="#F6FAFD"/>
</svg>
