<svg width="30" height="30" viewBox="0 0 30 30" fill="none" xmlns="http://www.w3.org/2000/svg">
<path d="M27.6035 14.2441C26.5736 12.0744 25.348 10.3049 23.9267 8.93554L22.4361 10.4262C23.6516 11.5878 24.7104 13.1074 25.626 15C23.1885 20.0449 19.7285 22.4414 15 22.4414C13.5807 22.4414 12.2733 22.2228 11.078 21.7857L9.46288 23.4009C11.123 24.1675 12.9687 24.5508 15 24.5508C20.6308 24.5508 24.832 21.6182 27.6035 15.7529C27.7149 15.517 27.7727 15.2594 27.7727 14.9985C27.7727 14.7376 27.7149 14.48 27.6035 14.2441ZM25.7411 4.85038L24.4922 3.59999C24.4704 3.5782 24.4446 3.56091 24.4161 3.54912C24.3877 3.53732 24.3572 3.53125 24.3264 3.53125C24.2956 3.53125 24.2651 3.53732 24.2366 3.54912C24.2082 3.56091 24.1823 3.5782 24.1605 3.59999L20.9563 6.80272C19.1897 5.90038 17.2043 5.44921 15 5.44921C9.36913 5.44921 5.16795 8.38182 2.39647 14.2471C2.28507 14.4829 2.22729 14.7406 2.22729 15.0015C2.22729 15.2623 2.28507 15.52 2.39647 15.7558C3.5037 18.0879 4.83671 19.9571 6.39549 21.3636L3.2953 24.4629C3.25138 24.5068 3.22671 24.5664 3.22671 24.6286C3.22671 24.6907 3.25138 24.7503 3.2953 24.7942L4.54598 26.0449C4.58993 26.0888 4.64952 26.1135 4.71166 26.1135C4.77379 26.1135 4.83338 26.0888 4.87733 26.0449L25.7411 5.18202C25.7629 5.16025 25.7802 5.1344 25.792 5.10595C25.8038 5.0775 25.8098 5.047 25.8098 5.0162C25.8098 4.9854 25.8038 4.9549 25.792 4.92645C25.7802 4.898 25.7629 4.87215 25.7411 4.85038ZM4.37401 15C6.81444 9.95507 10.2744 7.55858 15 7.55858C16.5978 7.55858 18.0507 7.8328 19.3687 8.39032L17.3092 10.4499C16.3338 9.92947 15.217 9.73633 14.1234 9.89895C13.0299 10.0616 12.0176 10.5714 11.2359 11.3531C10.4542 12.1348 9.94439 13.1471 9.78176 14.2406C9.61914 15.3341 9.81228 16.451 10.3327 17.4264L7.88875 19.8703C6.53612 18.6765 5.3701 17.059 4.37401 15ZM11.6015 15C11.6021 14.4834 11.7244 13.9742 11.9587 13.5137C12.193 13.0533 12.5326 12.6546 12.9499 12.3501C13.3672 12.0456 13.8504 11.8438 14.3604 11.7611C14.8703 11.6784 15.3926 11.7172 15.8848 11.8743L11.7571 16.0019C11.6537 15.678 11.6012 15.34 11.6015 15Z" fill="black" fill-opacity="0.4"/>
<path d="M14.8828 18.2813C14.7815 18.2813 14.6815 18.2766 14.5825 18.2675L13.0351 19.8149C13.9658 20.1714 14.9799 20.2506 15.9546 20.043C16.9294 19.8354 17.8232 19.3499 18.528 18.6452C19.2327 17.9404 19.7182 17.0466 19.9258 16.0718C20.1334 15.097 20.0542 14.083 19.6978 13.1523L18.1503 14.6997C18.1594 14.7987 18.1641 14.8986 18.1641 15C18.1643 15.431 18.0796 15.8578 17.9148 16.256C17.75 16.6542 17.5083 17.016 17.2035 17.3207C16.8988 17.6255 16.537 17.8671 16.1388 18.032C15.7406 18.1968 15.3138 18.2815 14.8828 18.2813Z" fill="black" fill-opacity="0.4"/>
</svg>
