<svg width="35" height="35" viewBox="0 0 35 35" fill="none" xmlns="http://www.w3.org/2000/svg">
<path d="M17.1412 3.29219L17.5 3.28125C18.8884 3.28104 20.225 3.80895 21.2385 4.7579C22.2521 5.70685 22.8667 7.00579 22.9578 8.39125L22.9688 8.75V10.9375H25.1562C26.0265 10.9375 26.8611 11.2832 27.4764 11.8986C28.0918 12.5139 28.4375 13.3485 28.4375 14.2188V27.3438C28.4375 28.214 28.0918 29.0486 27.4764 29.6639C26.8611 30.2793 26.0265 30.625 25.1562 30.625H9.84375C8.97351 30.625 8.13891 30.2793 7.52356 29.6639C6.9082 29.0486 6.5625 28.214 6.5625 27.3438V14.2188C6.5625 13.3485 6.9082 12.5139 7.52356 11.8986C8.13891 11.2832 8.97351 10.9375 9.84375 10.9375H12.0312V8.75C12.031 7.36155 12.5589 6.02501 13.5079 5.01146C14.4569 3.99792 15.7558 3.38327 17.1412 3.29219ZM25.1562 13.125H9.84375C9.55367 13.125 9.27547 13.2402 9.07035 13.4454C8.86523 13.6505 8.75 13.9287 8.75 14.2188V27.3438C8.75 27.6338 8.86523 27.912 9.07035 28.1171C9.27547 28.3223 9.55367 28.4375 9.84375 28.4375H25.1562C25.4463 28.4375 25.7245 28.3223 25.9296 28.1171C26.1348 27.912 26.25 27.6338 26.25 27.3438V14.2188C26.25 13.9287 26.1348 13.6505 25.9296 13.4454C25.7245 13.2402 25.4463 13.125 25.1562 13.125ZM17.5 18.5938C18.0802 18.5938 18.6366 18.8242 19.0468 19.2345C19.457 19.6447 19.6875 20.2011 19.6875 20.7812C19.6875 21.3614 19.457 21.9178 19.0468 22.328C18.6366 22.7383 18.0802 22.9688 17.5 22.9688C16.9198 22.9688 16.3634 22.7383 15.9532 22.328C15.543 21.9178 15.3125 21.3614 15.3125 20.7812C15.3125 20.2011 15.543 19.6447 15.9532 19.2345C16.3634 18.8242 16.9198 18.5938 17.5 18.5938ZM17.815 5.48406L17.5 5.46875C16.6843 5.46879 15.8979 5.77264 15.2941 6.32104C14.6903 6.86945 14.3124 7.62309 14.2341 8.435L14.2188 8.75V10.9375H20.7812V8.75C20.7812 7.93432 20.4774 7.14789 19.929 6.54408C19.3806 5.94027 18.6269 5.56237 17.815 5.48406Z" fill="black" fill-opacity="0.4"/>
</svg>
