<svg width="31" height="32" viewBox="0 0 31 32" fill="none" xmlns="http://www.w3.org/2000/svg">
<path d="M15.7755 4.6094C15.7755 4.26821 15.6427 3.94099 15.4064 3.69973C15.1701 3.45847 14.8495 3.32294 14.5153 3.32294C14.1811 3.32294 13.8605 3.45847 13.6242 3.69973C13.3879 3.94099 13.2551 4.26821 13.2551 4.6094V13.6146H4.43367C4.09945 13.6146 3.77891 13.7501 3.54257 13.9914C3.30624 14.2327 3.17347 14.5599 3.17347 14.9011C3.17347 15.2423 3.30624 15.5695 3.54257 15.8107C3.77891 16.052 4.09945 16.1875 4.43367 16.1875H13.2551V25.1927C13.2551 25.5339 13.3879 25.8611 13.6242 26.1024C13.8605 26.3437 14.1811 26.4792 14.5153 26.4792C14.8495 26.4792 15.1701 26.3437 15.4064 26.1024C15.6427 25.8611 15.7755 25.5339 15.7755 25.1927V16.1875H24.5969C24.9312 16.1875 25.2517 16.052 25.488 15.8107C25.7244 15.5695 25.8571 15.2423 25.8571 14.9011C25.8571 14.5599 25.7244 14.2327 25.488 13.9914C25.2517 13.7501 24.9312 13.6146 24.5969 13.6146H15.7755V4.6094Z" fill="#FFFEFE"/>
</svg>
