<svg width="37" height="37" viewBox="0 0 37 37" fill="none" xmlns="http://www.w3.org/2000/svg">
<path fill-rule="evenodd" clip-rule="evenodd" d="M11.4153 26.7587C16.6916 25.9878 20.3246 26.0541 25.6078 26.7856C25.9905 26.8411 26.3401 27.0331 26.5921 27.3263C26.8442 27.6194 26.9817 27.9939 26.9792 28.3805C26.9792 28.7505 26.852 29.1097 26.6223 29.3903C26.2219 29.8795 25.8117 30.3606 25.392 30.8333H27.4278C27.5557 30.6807 27.6845 30.525 27.8147 30.3669C28.272 29.8062 28.5214 29.1048 28.5208 28.3813C28.5208 26.8203 27.3815 25.4752 25.819 25.2594C20.4109 24.5109 16.6307 24.4392 11.1925 25.234C9.61382 25.4644 8.47916 26.8304 8.47916 28.4021C8.47916 29.0997 8.70655 29.7896 9.13745 30.3484C9.26464 30.5134 9.39028 30.6753 9.51516 30.8341H11.5016C11.1111 30.3666 10.7302 29.8911 10.3592 29.408C10.1387 29.1188 10.0198 28.765 10.0208 28.4013C10.0208 27.5711 10.6174 26.8751 11.4153 26.7587ZM18.5 19.2708C19.1074 19.2708 19.7088 19.1512 20.2699 18.9187C20.831 18.6863 21.3409 18.3456 21.7704 17.9162C22.1998 17.4867 22.5405 16.9768 22.7729 16.4157C23.0054 15.8546 23.125 15.2532 23.125 14.6458C23.125 14.0384 23.0054 13.437 22.7729 12.8759C22.5405 12.3148 22.1998 11.8049 21.7704 11.3754C21.3409 10.946 20.831 10.6053 20.2699 10.3728C19.7088 10.1404 19.1074 10.0208 18.5 10.0208C17.2734 10.0208 16.097 10.5081 15.2296 11.3754C14.3623 12.2428 13.875 13.4192 13.875 14.6458C13.875 15.8724 14.3623 17.0488 15.2296 17.9162C16.097 18.7835 17.2734 19.2708 18.5 19.2708ZM18.5 20.8125C20.1355 20.8125 21.704 20.1628 22.8605 19.0063C24.017 17.8498 24.6667 16.2813 24.6667 14.6458C24.6667 13.0103 24.017 11.4418 22.8605 10.2853C21.704 9.12883 20.1355 8.47913 18.5 8.47913C16.8645 8.47913 15.296 9.12883 14.1395 10.2853C12.983 11.4418 12.3333 13.0103 12.3333 14.6458C12.3333 16.2813 12.983 17.8498 14.1395 19.0063C15.296 20.1628 16.8645 20.8125 18.5 20.8125Z" fill="black"/>
<path fill-rule="evenodd" clip-rule="evenodd" d="M18.5 32.375C26.1628 32.375 32.375 26.1628 32.375 18.5C32.375 10.8371 26.1628 4.62498 18.5 4.62498C10.8371 4.62498 4.62499 10.8371 4.62499 18.5C4.62499 26.1628 10.8371 32.375 18.5 32.375ZM18.5 33.9166C27.0146 33.9166 33.9167 27.0146 33.9167 18.5C33.9167 9.98536 27.0146 3.08331 18.5 3.08331C9.98537 3.08331 3.08333 9.98536 3.08333 18.5C3.08333 27.0146 9.98537 33.9166 18.5 33.9166Z" fill="black"/>
</svg>
