<svg width="51" height="49" viewBox="0 0 51 49" fill="none" xmlns="http://www.w3.org/2000/svg">
<path d="M35.5178 28C38.1747 28 40.7228 29.0141 42.6015 30.8191C44.4802 32.6241 45.5356 35.0723 45.5356 37.625C45.5356 40.1777 44.4802 42.6259 42.6015 44.4309C40.7228 46.2359 38.1747 47.25 35.5178 47.25C32.8609 47.25 30.3128 46.2359 28.4341 44.4309C26.5554 42.6259 25.4999 40.1777 25.4999 37.625C25.4999 35.0723 26.5554 32.6241 28.4341 30.8191C30.3128 29.0141 32.8609 28 35.5178 28ZM25.4999 3.5C27.3692 3.5 29.1669 4.19026 30.5213 5.42802C31.8756 6.66577 32.6831 8.35632 32.7765 10.15L32.7856 10.5H41.8928C42.357 10.5005 42.8036 10.6713 43.1411 10.9775C43.4787 11.2837 43.6819 11.7022 43.7091 12.1474C43.7363 12.5927 43.5855 13.0312 43.2875 13.3732C42.9896 13.7153 42.5669 13.9351 42.1059 13.9878L41.8928 14H40.3464L39.2645 26.831C36.7534 26.0252 34.0336 26.0512 31.5398 26.905C29.0459 27.7588 26.9218 29.391 25.507 31.541C24.0921 33.6909 23.468 36.2344 23.7345 38.7651C24.001 41.2958 25.1427 43.6677 26.9771 45.5017L19.6094 45.5C17.8934 45.5001 16.2401 44.8796 14.9786 43.7619C13.717 42.6441 12.9396 41.1111 12.8009 39.4678L10.6516 14H9.10707C8.66094 13.9999 8.23035 13.8426 7.89697 13.5577C7.56358 13.2729 7.35059 12.8804 7.29839 12.4548L7.28564 12.25C7.2857 11.8214 7.44949 11.4077 7.74595 11.0873C8.0424 10.767 8.4509 10.5624 8.89397 10.5122L9.10707 10.5H18.2142C18.2142 8.64348 18.9818 6.86301 20.3482 5.55025C21.7145 4.2375 23.5676 3.5 25.4999 3.5ZM32.2939 33.292L32.17 33.1905C32.0177 33.0893 31.837 33.035 31.6518 33.035C31.4666 33.035 31.2859 33.0893 31.1336 33.1905L31.0061 33.292L30.9023 33.4145C30.7973 33.5606 30.7411 33.734 30.7411 33.9115C30.7411 34.089 30.7973 34.2624 30.9023 34.4085L31.0079 34.531L34.2319 37.6267L31.0116 40.7173L30.9059 40.8397C30.801 40.9859 30.7448 41.1592 30.7448 41.3368C30.7448 41.5143 30.801 41.6876 30.9059 41.8338L31.0116 41.9562L31.1391 42.056C31.2912 42.1568 31.4716 42.2108 31.6564 42.2108C31.8411 42.2108 32.0216 42.1568 32.1736 42.056L32.3011 41.9562L35.5178 38.864L38.7417 41.9597L38.8674 42.0612C39.0195 42.1621 39.1999 42.2161 39.3847 42.2161C39.5695 42.2161 39.7499 42.1621 39.902 42.0612L40.0295 41.9597L40.1333 41.8372C40.2382 41.6911 40.2945 41.5178 40.2945 41.3402C40.2945 41.1627 40.2382 40.9894 40.1333 40.8433L40.0295 40.7207L36.8055 37.6267L40.0331 34.5293L40.1388 34.4085C40.2441 34.2622 40.3006 34.0885 40.3006 33.9106C40.3006 33.7327 40.2441 33.559 40.1388 33.4128L40.0331 33.292L39.9074 33.1905C39.7552 33.0893 39.5744 33.035 39.3892 33.035C39.2041 33.035 39.0233 33.0893 38.871 33.1905L38.7454 33.292L35.5178 36.3895L32.2939 33.292L32.17 33.1905L32.2957 33.292H32.2939ZM25.4999 7C24.5809 6.99972 23.6957 7.33321 23.0218 7.93362C22.3479 8.53403 21.9351 9.35698 21.8662 10.2375L21.8571 10.5H29.1428L29.1337 10.2375C29.0648 9.35698 28.652 8.53403 27.9781 7.93362C27.3042 7.33321 26.419 6.99972 25.4999 7Z" fill="#FF0000"/>
</svg>
