<svg width="34" height="34" viewBox="0 0 34 34" fill="none" xmlns="http://www.w3.org/2000/svg">
<path d="M17 5.3125C12.9041 5.3125 9.5625 8.65406 9.5625 12.75C9.5625 15.3106 10.8694 17.5844 12.8499 18.9263C9.05994 20.5519 6.375 24.3132 6.375 28.6875H8.5C8.5 23.9806 12.2931 20.1875 17 20.1875C21.7069 20.1875 25.5 23.9806 25.5 28.6875H27.625C27.625 24.3132 24.9401 20.553 21.1501 18.9253C22.1609 18.2429 22.9891 17.3232 23.5622 16.2467C24.1353 15.1701 24.4358 13.9696 24.4375 12.75C24.4375 8.65406 21.0959 5.3125 17 5.3125ZM17 7.4375C19.9463 7.4375 22.3125 9.80369 22.3125 12.75C22.3125 15.6963 19.9463 18.0625 17 18.0625C14.0537 18.0625 11.6875 15.6963 11.6875 12.75C11.6875 9.80369 14.0537 7.4375 17 7.4375Z" fill="black" fill-opacity="0.4"/>
</svg>
